Patient4_TMGait_0pt2_01_right_01_EMG.mot
version=1
nRows=30
nColumns=33
inDegrees=no
endheader
time	1LAddLong	2LGlutMax	3LGlutMed	4LIliopsoas	5LSemiMemb	6LBicFemLong	7LRecFem	8LVastMed	9LVastLat	10LGasMed	11LTibAnt	12lTibPost	13LPeroneusLong	14LSol	15LExtDigLong	16LFlexDigLong	17RAddLong	18RGlutMax	19RGlutMed	20RIliopsoas	21RSemiMemb	22RBicFemLong	23RRecFem	24RVastMed	25RVastLat	26RGasMed	27RTibAnt	28RTibPost	29RPeroneusLong	30RSol	31RExtDigLong	32RFlexDigLong
0.8	0.003204	-0.026703	0.031586	0.006866	-0.003967	-0.089264	0.003357	0.004272	0.01236	0.027313	0.026093	0.01236	0.005646	-0.063171	-0.010223	0.005798	0.030518	0.082397	-0.21866	-0.09201	-0.16266	-0.13107	-0.029907	-0.02533	0.061798	0.009918	0.090332	-0.2298	-1.0709	0.016022	-0.006409	-0.010071
0.801	0.00885	-0.063019	0.018158	0.017242	0.022583	-0.000305	0.004883	0.003357	0.003967	0.020447	0.011597	-0.000153	0.020752	-0.11948	-0.008545	-0.004578	0.03891	0.027924	-0.37933	0.042267	-0.03891	-0.09964	-0.017853	0.026093	0.11826	-0.023041	0.10193	0.21484	-0.625	-0.015564	-0.003357	-0.00946
0.802	0.011749	-0.063019	0.016785	0.007172	0.028381	0.084686	0.001831	0.000305	0.010071	0.031891	0.005035	-0.001373	0.018463	-0.19684	-0.018768	-0.008545	0.029907	-0.062714	-0.41534	0.17899	-0.13855	-0.12299	0.038605	0.05127	0.15579	-0.002289	0.020294	0.077515	0.13077	-0.049438	-0.002747	-0.014648
0.803	-0.00061	-0.079346	0.022125	0.005341	0.031281	0.23331	0.005646	0.003967	0.005951	0.032959	0.002289	0.003204	0.019531	-0.075378	-0.021667	0.002899	-0.008545	-0.055847	-0.48904	0.20752	-0.085297	-0.097198	0.11902	0.11017	0.07309	0.01709	-0.066223	0.027008	0.51971	0.11383	0.005646	-0.009918
0.804	0.007935	-0.010529	0.051117	0.018921	0.00885	0.075684	-0.000305	0.001068	0.016327	0.015259	0.002441	0.00473	0.011749	0.059662	-0.004883	-0.00412	-0.02121	-0.076447	0.020905	0.11841	0.034027	-0.018005	0.14313	-0.045624	0.26032	0.020142	-0.066833	0.002747	-1.3672	0.25009	-0.006256	-0.008392
0.805	0.002899	-0.030975	0.019684	-0.001526	0.011292	0.14496	0.01297	0.005646	0.013275	-0.002289	-0.000153	0.008545	0.016479	0.15793	0.006104	-0.002136	0.006561	-0.049438	0.11337	0.015106	0.24658	0.036469	0.088501	-0.090637	0.3537	0.03418	0.037842	-0.010529	-1.5297	0.11566	-0.002747	-0.011139
0.806	0.003967	0.019226	-0.01297	-0.002136	0.008698	0.22522	-0.006866	0.00824	0.007172	-0.058289	0.00473	0.004883	0	0.10712	0.013428	0.006866	0.005798	0.014038	0.059662	-0.16678	0.078125	0.083923	0.011597	-0.040131	0.2832	0.028534	-0.002594	-0.016785	-0.87311	0.002594	-0.005493	-0.013275
0.807	0.005493	-0.019226	-0.037079	0.007172	-0.003967	0.04364	0.000916	0.011597	-0.00412	-0.032654	-0.003357	0.002594	0.016022	-0.036926	0.014801	0.001984	0.026398	-0.009766	0.11307	-0.16632	-0.044098	0.11169	0.07019	-0.12619	0.11719	-0.001068	0.023499	-0.013275	-0.40558	-0.016327	-0.00473	-0.024719
0.808	0.010834	-0.017548	0.048676	0.019379	-0.033722	-0.1886	0.018005	0.001526	0.010223	0.02121	0.004272	0.005493	0.013275	-0.058899	-0.002594	0.001831	0.023346	0.073547	-0.037079	-0.14008	-0.015411	0.14725	0.095062	-0.1384	-0.039673	-0.02121	-0.018005	-0.012512	-0.37064	-0.18799	-0.004578	-0.019989
0.809	-0.001373	-0.037384	0.027161	0.027771	-0.016632	-0.271	0.007935	0.002441	0.011749	-0.035095	-0.000458	0.006256	0.010986	0.046539	0.005493	0.015869	0.037231	0.18433	0.17761	0.032806	0.005341	0.046387	0.092316	-0.13245	-0.16861	0.01358	-0.099182	-0.021515	0.28534	-0.22034	-0.005493	-0.019684
0.81	0.00351	-0.030975	0.022125	0.019073	0.001221	-0.16342	-0.012207	-0.002441	0.012207	-0.011139	0.005035	0.004578	0.016632	0.13641	0.010071	-0.002747	0.056	0.20187	0.023499	0.13168	0.16785	-0.058289	0.066071	-0.095673	-0.26794	0.024109	-0.042419	-0.019073	0.10376	-0.008698	-0.00412	-0.020599
0.811	0.003662	-0.010071	0.010071	0.016327	-0.004425	-0.05249	0.028687	-0.001526	0.010681	-0.005035	0.002899	-0.001526	0.016327	0.073547	0.005798	0.000763	0.044708	0.12634	-0.23468	0.15457	0.22797	-0.17059	0.067596	-0.036163	-0.45609	0.024872	0.007782	-0.10269	0.12497	0.1857	-0.004425	-0.019684
0.812	0.003815	-0.015106	-0.002594	0.015869	-0.009613	-0.030823	0.010681	-0.002136	0.017242	0.006866	0.000305	0.004578	0.018463	-0.018463	-0.009308	0.006256	0.034943	0.10147	-0.32105	0.067749	0.18707	-0.22385	0.070038	-0.034637	-0.39093	0.031128	0.054016	0.027771	0.44601	-0.024261	-0.004578	-0.027466
0.813	0.011139	-0.03067	-0.002289	-0.000305	-0.024719	0.001068	0.03891	0	0.019836	0.003052	0.007477	-0.005798	0.011139	-0.026398	-0.005493	-0.00824	0.003204	0.088654	-0.25909	0.06485	-0.12421	-0.13321	0.058136	0.002594	-0.34073	0.013275	0.072479	0.082092	0.26581	-0.19684	-0.00061	-0.034332
0.814	0.005188	0.001068	0.010834	0.003357	-0.042572	0.053101	0.030823	0.005798	0.013733	0.005341	0.024872	0.005798	0.00473	0.040588	-0.002289	0.002136	0.002747	0.14679	-0.031433	0.15991	-0.084534	-0.1384	0.091095	-0.011444	-0.18738	0.003967	0.053558	-0.004578	-0.13092	-0.20737	-0.001221	-0.015106
0.815	0.005341	0.017853	-0.004578	0.004272	-0.013733	-0.001526	0.030823	0.003662	0.021362	-0.000916	0.017548	0.007629	-0.00473	0.048218	-0.00351	-0.005646	0.025635	0.12436	0.49957	0.18555	0.013123	-0.13825	0.088806	-0.11337	-0.071259	-0.027161	-0.092163	-0.014038	0.82932	-0.11429	-0.001831	-0.026245
0.816	0.004883	-0.015717	-0.053101	0.005341	0.037994	-0.21332	0.023804	0.005493	-0.000763	-0.011749	0.012054	0.003204	0.01236	0.030975	-0.002289	0.006104	0.021057	0.041199	0.42343	0.042267	0.000458	-0.10101	0.055084	-0.10086	-0.04837	-0.019531	-0.053406	-0.003662	0.51712	-0.17807	-0.001068	-0.022125
0.817	0.008392	-0.034485	-0.020447	0.013123	0.037689	-0.10895	-0.020294	0.005798	-0.02243	0.006409	0.001373	-0.000305	0.023346	0.019531	0.009155	-0.005035	-0.03418	0.066376	0.035095	-0.074158	-0.1622	-0.045776	0.027313	-0.000458	-0.017548	-0.033722	-0.002594	0.000763	-0.28549	-0.28503	-0.004578	-0.028534
0.818	0.00351	-0.060425	-0.011597	0.023499	0.026093	0.014343	-0.055389	0.010986	0.007782	-0.000153	0.001526	0.001373	0.015869	-0.000916	0.016174	-0.003204	-0.056458	0.049133	-0.30106	-0.13779	-0.0177	-0.032806	0.096283	0.014496	-0.036621	-0.026245	-0.01358	-0.009003	0.2063	-0.33234	-0.001526	-0.024109
0.819	0.001984	-0.048523	0.018463	0.002747	0.011139	0.065155	-0.035553	0.002899	0.010681	0.005188	-0.025635	-0.000305	0.03418	0.007935	0.014954	-0.001373	-0.030823	0.060883	0.043793	-0.13901	0.075378	-0.056	0.079193	-0.025482	0.001831	-0.018616	-0.0737	-0.35629	0.33478	-0.60516	-0.001678	-0.019531
0.82	0.026093	-0.041504	0.019073	0.008698	-0.001678	0.065613	0.003662	-0.002899	0.009766	0.010376	-0.029449	0.001068	0.053253	-0.025024	0.017242	-0.009308	0.014191	0.057831	0.10193	-0.090332	0.12512	-0.032806	0.095062	-0.010834	0.041656	-0.013733	-0.10803	0.085754	0.22095	-0.54916	-0.001831	-0.011749
0.821	0.034485	-0.08667	-0.013123	-0.009613	0.006561	0.057373	0.020142	-0.010834	0.011444	0.013275	-0.018463	0.007019	0.050964	-0.049591	-0.009308	-0.005035	0.051422	0.016022	-0.13794	0.019836	0.088806	0.003662	0.051575	0.000763	0.062256	-0.012512	-0.038452	0.13458	0.12497	-0.031128	-0.003967	-0.01709
0.822	0.02243	-0.078735	-0.005188	-0.001526	-0.011292	-0.000153	-0.000916	-0.005188	0.016785	0.006866	-0.020294	0.006866	0.059204	-0.015564	-0.037079	0.005188	0.076447	0.000153	0.087891	0.17014	-0.14023	0.10834	0.066528	-0.045929	0.077972	-0.011749	0.040283	0.048218	0.18662	0.19836	-0.000763	-0.015411
0.823	0.012665	-0.077209	0.003204	-0.000916	-0.006409	-0.11978	-0.001526	-0.002899	0.017395	0.012817	-0.020294	0.005341	0.025787	-0.042114	-0.042572	-0.009003	0.022736	0.058136	-0.06424	0.13657	-0.354	0.23621	0.020752	-0.003357	0.12528	-0.00946	0.048676	0.032654	-0.038147	0.16693	-0.001984	-0.016022
0.824	0.005951	-0.056458	0.009613	0.002441	-0.017853	-0.11032	-0.009766	0.000153	0.026093	0.025635	-0.006104	0.000763	0.028839	-0.015106	-0.02655	-0.005035	-0.00412	0.047455	0.036469	0.002594	-0.10056	0.062866	-0.003815	0.007629	0.1091	0.001373	0.049133	0.030823	0.41885	0.1442	-0.003052	-0.013733
0.825	0.015564	-0.036774	0.03006	0.018616	-0.007324	-0.057373	0.008545	-0.009766	0.011749	0.037079	-0.012512	0.002289	0.094452	0.0914	-0.003967	0.003815	-0.022583	0.008087	0.23682	-0.090332	0.024872	-0.15717	-0.038147	-0.045471	0.033569	0.00351	0.012054	0.006256	0.55359	0.014191	-0.005493	-0.013885
0.826	0.013123	-0.0354	-0.031433	0.021362	-0.002899	-0.039978	0.017242	-0.00946	0.007935	0.027924	-0.00351	0.00824	0.15335	0.17471	0.00351	0.006256	-0.023956	0.032806	0.39154	-0.1091	-0.002136	-0.23773	-0.024414	0.020752	0.024567	0.006866	0.058899	-0.000763	0.097961	0.030975	-0.009003	-0.018005
0.827	0.011749	-0.031586	-0.033875	0.007172	0.011444	-0.049133	0.011749	0.005951	0.013428	0.013428	0.004425	-0.001984	-0.037537	0.15259	0.015411	0.009766	-0.007782	-0.022278	0.17563	-0.043182	-0.003052	-0.22766	0.07782	0.000763	0.026398	-0.001678	0.02594	-0.011292	0.82352	0.014191	-0.004578	-0.017395
0.828	0.007477	-0.055389	-0.005188	-0.008545	0.018005	-0.053558	0.0177	-0.00351	0.018463	0.007782	0.00061	-0.004578	-0.10239	0.070343	0.014343	-0.000458	0.014496	-0.009613	-0.30838	0.037231	0.023499	-0.16052	0.089417	0.041351	0.016174	-0.005493	-0.030823	-0.011292	0.23438	-0.069275	-0.004883	-0.0177
0.829	0.009308	-0.041199	0.001526	0.002594	0.027466	-0.041962	0.005341	-0.00061	0.008392	0.017242	-0.006104	0.009003	0.02533	-0.13916	-0.009003	-0.003204	0.014496	-0.010986	0.1915	-0.029755	0.11505	-0.15381	0.0177	0.10162	0.018311	-0.015106	-0.086975	-0.011139	0.383	-0.12466	-0.006256	-0.019836
